<?xml version="1.0" ?><svg viewBox="0 0 64 64" xmlns="http://www.w3.org/2000/svg"><g id="Healthy-Strong-Healthcare-Exercise-Strength"><path d="M60.2,34l.8,4-.83,9.18a2.009,2.009,0,0,1-2,1.82H49V61H42L40.18,43.82,41,43l3,1,1.59-3.97a5.949,5.949,0,0,1,2.97,1.15A5.72,5.72,0,0,1,51.97,40,5.959,5.959,0,0,1,56,41.54V34Z" style="fill:#78d7c9ed"/><path d="M46,24v2h-.66a3.014,3.014,0,0,1-2.91-2.27L42,22a4,4,0,0,1-4,4H32V24a7,7,0,1,1,14,0Z" style="fill:#78d7c9ed"/><path d="M45.59,40.03,44,44l-3-1-1-2,2-1h3A5.683,5.683,0,0,1,45.59,40.03Z" style="fill:#78d7c9ed"/><path d="M38,41l-1,2-3,1-1.59-3.97A5.683,5.683,0,0,1,33,40h3Z" style="fill:#78d7c9ed"/><path d="M37.82,43.82,36,61H29V49H19.83a2.009,2.009,0,0,1-2-1.82L17,38l.8-4H22v7.54A5.959,5.959,0,0,1,26.03,40a5.72,5.72,0,0,1,3.41,1.18,5.949,5.949,0,0,1,2.97-1.15L34,44l3-1Z" style="fill:#78d7c9ed"/><path d="M17.54,17.54A5.022,5.022,0,1,1,19,14,5.022,5.022,0,0,1,17.54,17.54Z" style="fill:#78d7c9ed"/><path d="M61.98,37.8l-1.36-6.77A5,5,0,0,0,55.72,27h-.61a3.074,3.074,0,0,0-3.02,2.26A3.006,3.006,0,0,0,55,33v6.68A6.866,6.866,0,0,0,51.96,39a6.7,6.7,0,0,0-3.41.98,6.912,6.912,0,0,0-2.85-.94A5.374,5.374,0,0,0,45,39H43V36.92A8.06,8.06,0,0,0,46.74,32H47a3,3,0,0,0,0-6V24a8,8,0,0,0-16,0v2a3,3,0,0,0,0,6h.26A8.06,8.06,0,0,0,35,36.92V39H33a6.9,6.9,0,0,0-3.55.98A6.7,6.7,0,0,0,26.04,39h-.05a7,7,0,0,0-2.99.68V33a3.07,3.07,0,0,0,2.91-2.26A3.006,3.006,0,0,0,23,27h-.72a5,5,0,0,0-4.9,4.02L16.02,37.8a1.415,1.415,0,0,0-.02.29l.84,9.18A2.979,2.979,0,0,0,19.83,50H28V61a1,1,0,0,0,1,1H49a1,1,0,0,0,1-1V50h8.17a2.979,2.979,0,0,0,2.99-2.73L62,38.09A1.415,1.415,0,0,0,61.98,37.8ZM47,28a1,1,0,0,1,0,2ZM31,30a1,1,0,0,1,0-2Zm23.29.69a.949.949,0,0,1-.26-.94A1.1,1.1,0,0,1,55.11,29h.61a3.007,3.007,0,0,1,2.94,2.42L58.98,33H57V32a1,1,0,0,0-1-1H55A.949.949,0,0,1,54.29,30.69ZM44.12,41l-.7,1.75-1.71-.57-.37-.73.9-.45ZM33,24a6,6,0,0,1,12,0v.97a2.009,2.009,0,0,1-1.6-1.48l-.43-1.73A1,1,0,0,0,41,22a3.009,3.009,0,0,1-3,3H33Zm0,6V27h5a5.012,5.012,0,0,0,3.93-1.91A3.99,3.99,0,0,0,45,26.98V30a6,6,0,0,1-12,0Zm2.76,11,.9.45-.37.73-1.71.57L33.88,41ZM19.34,31.41A3.009,3.009,0,0,1,22.28,29H23a1.019,1.019,0,0,1,.97,1.25,1.1,1.1,0,0,1-1.08.75H22a1,1,0,0,0-1,1v1H19.02ZM35.1,60H30V49a1,1,0,0,0-1-1H19.83a1,1,0,0,1-1-.91l-.82-9.04L18.62,35H21v6.54a1,1,0,0,0,1.67.74A5.273,5.273,0,0,1,26.02,41a4.774,4.774,0,0,1,2.82.98.99.99,0,0,0,1.2,0,4.82,4.82,0,0,1,1.75-.81l1.28,3.2A1,1,0,0,0,34,45a1.248,1.248,0,0,0,.32-.05l2.41-.81.05.05Zm2.01,0L38.6,45.91a.934.934,0,0,0,.8,0L40.89,60Zm1.11-17.2.4-.8h.76l.4.8-.78.79ZM41,39.38,39.76,40H38.24L37,39.38V37.74a7.822,7.822,0,0,0,4,0Zm18.17,7.71a1,1,0,0,1-1,.91H49a1,1,0,0,0-1,1V60H42.9L41.22,44.19l.05-.05,2.41.81A1.248,1.248,0,0,0,44,45a1,1,0,0,0,.93-.63l1.29-3.21a4.967,4.967,0,0,1,1.74.82.99.99,0,0,0,1.2,0A4.774,4.774,0,0,1,51.98,41h.03a5,5,0,0,1,3.32,1.28.981.981,0,0,0,1.08.17,1,1,0,0,0,.59-.91V35h2.38l.61,3.05Z" style="fill:#00c6a9"/><rect height="2" style="fill:#00c6a9" width="2" x="35" y="28"/><rect height="2" style="fill:#00c6a9" width="2" x="41" y="28"/><rect height="2" style="fill:#00c6a9" width="2" x="13" y="13"/><path d="M15,22.278V19.91a5.964,5.964,0,0,0,2.471-1.025l1.676,1.675a1.992,1.992,0,0,0,.51,1.925h0a2,2,0,1,0,.9-3.339l-1.676-1.676A5.964,5.964,0,0,0,19.91,15h2.368a2,2,0,1,0,0-2H19.91a5.964,5.964,0,0,0-1.025-2.471l1.676-1.676a2.016,2.016,0,0,0,.51.075,2,2,0,0,0,1.414-.584h0a2,2,0,1,0-3.338-.9L17.471,9.115A5.964,5.964,0,0,0,15,8.09V5.722a2,2,0,1,0-2,0V8.09a5.964,5.964,0,0,0-2.471,1.025L8.853,7.44a1.992,1.992,0,0,0-.51-1.925h0a2.015,2.015,0,1,0-.9,3.339l1.676,1.676A5.964,5.964,0,0,0,8.09,13H5.722a2,2,0,1,0,0,2H8.09a5.964,5.964,0,0,0,1.025,2.471L7.439,19.147a1.994,1.994,0,0,0-1.924.509h0a2,2,0,1,0,3.338.9l1.676-1.675A5.964,5.964,0,0,0,13,19.91v2.368a2,2,0,1,0,2,0Zm-3.707-6.985-.726.726a3.878,3.878,0,0,1,0-4.038l.726.726,1.414-1.414-.726-.726a3.878,3.878,0,0,1,4.038,0l-.726.726,1.414,1.414.726-.726a3.878,3.878,0,0,1,0,4.038l-.726-.726-1.414,1.414.726.726a3.878,3.878,0,0,1-4.038,0l.726-.726Z" style="fill:#00c6a9"/><path d="M49.567,13.019l-1.516,1.517,1.414,1.414,1.516-1.517A3.915,3.915,0,0,0,52,14.858V17h2V14.858a3.915,3.915,0,0,0,1.019-.425l1.516,1.517,1.414-1.414-1.516-1.517A3.915,3.915,0,0,0,56.858,12H59V10H56.858a3.915,3.915,0,0,0-.425-1.019l1.516-1.517L56.535,6.05,55.019,7.567A3.915,3.915,0,0,0,54,7.142V5H52V7.142a3.915,3.915,0,0,0-1.019.425L49.465,6.05,48.051,7.464l1.516,1.517A3.915,3.915,0,0,0,49.142,10H47v2h2.142A3.915,3.915,0,0,0,49.567,13.019ZM53,9a2,2,0,1,1-2,2A2,2,0,0,1,53,9Z" style="fill:#00c6a9"/><rect height="2" style="fill:#00c6a9" width="2" x="31" y="7"/><rect height="2" style="fill:#00c6a9" width="2" x="37" y="10"/><rect height="2" style="fill:#00c6a9" width="2" x="41" y="2"/><rect height="2" style="fill:#00c6a9" width="2" x="4" y="33"/><rect height="2" style="fill:#00c6a9" width="2" x="10" y="29"/><rect height="2" style="fill:#00c6a9" width="2" x="56" y="20"/><rect height="2" style="fill:#00c6a9" width="2" x="6" y="42"/><rect height="2" style="fill:#00c6a9" width="2" x="12" y="50"/><rect height="2" style="fill:#00c6a9" width="2" x="6" y="54"/></g></svg>