<?xml version="1.0" ?><svg style="enable-background:new 0 0 512 512;" version="1.1" viewBox="0 0 512 512" xml:space="preserve" xmlns="http://www.w3.org/2000/svg" xmlns:xlink="http://www.w3.org/1999/xlink"><g id="_x33_7_x2C__drugs_x2C__injection_x2C__syringe_x2C__vaccine"><g id="XMLID_7137_"><circle cx="468.055" cy="241" id="XMLID_3571_" r="7.5" style="fill:#00c6a9;"/><path d="M430.555,133.5c11.05,0,20,8.95,20,20s-8.95,20-20,20c-11.05,0-20-8.95-20-20    S419.505,133.5,430.555,133.5z" id="XMLID_3570_" style="fill:#FFFFFF;"/><path d="M440.555,423.5v13.75c0,11.74-9.51,21.25-21.25,21.25h-92.5    c-11.74,0-21.25-9.51-21.25-21.25V423.5h35h65H440.555z" id="XMLID_3569_" style="fill:#78d7c9ed;"/><path d="M440.555,323.5v100c-0.105,0-126.877,0-135,0v-100H440.555z" id="XMLID_3568_" style="fill:#FFFFFF;"/><polygon id="XMLID_3567_" points="415.555,288.5 440.555,323.5 305.555,323.5 330.555,288.5   " style="fill:#78d7c9ed;"/><path d="M430.555,248v11c0,5.25-4.25,9.5-9.5,9.5h-5.5h-85h-5.5c-5.25,0-9.5-4.25-9.5-9.5    v-11c0-5.25,4.25-9.5,9.5-9.5h96C426.305,238.5,430.555,242.75,430.555,248z" id="XMLID_3566_" style="fill:#78d7c9ed;"/><circle cx="423.055" cy="71" id="XMLID_3565_" r="7.5" style="fill:#00c6a9;"/><rect height="20" id="XMLID_3564_" style="fill:#FFFFFF;" width="85" x="330.555" y="268.5"/><rect height="65" id="XMLID_3563_" style="fill:#78d7c9ed;" width="65" x="340.555" y="358.5"/><path d="M376.895,99.59c2.44,2.44,3.66,5.64,3.66,8.84c0,3.19-1.22,6.39-3.66,8.84    c-4.88,4.88-12.8,4.88-17.68,0l-8.84-8.84l-24.75-24.75l-8.84-8.84c-2.44-2.44-3.66-5.64-3.66-8.84c0-3.2,1.22-6.4,3.66-8.84    c4.89-4.88,12.8-4.88,17.68,0L376.895,99.59z" id="XMLID_3562_" style="fill:#FFFFFF;"/><rect height="35.002" id="XMLID_3561_" style="fill:#78d7c9ed;" transform="matrix(0.7071 -0.7071 0.7071 0.7071 4.6218 256.1779)" width="74.825" x="274.132" y="105.009"/><path d="M177.435,330.87c-7.98,7.97-20.9,7.97-28.88,0    c-11.617-11.617,20.828,20.827-45.37-45.37c-7.97-7.98-7.97-20.9,0-28.88l130.35-130.34c7.97-7.97,20.89-7.97,28.87,0    c9.257,9.257,26.268,26.268,45.37,45.37c7.97,7.98,7.97,20.9,0,28.87C66.019,442.276,278.238,230.06,177.435,330.87z" id="XMLID_3560_" style="fill:#FFFFFF;"/><circle cx="258.055" cy="431" id="XMLID_3559_" r="7.5" style="fill:#00c6a9;"/><circle cx="208.055" cy="66" id="XMLID_3558_" r="7.5" style="fill:#00c6a9;"/><circle cx="133.055" cy="416" id="XMLID_3557_" r="7.5" style="fill:#00c6a9;"/><polygon id="XMLID_3556_" points="138.245,320.56 124.105,334.7 112.155,322.75 99.355,309.95     113.495,295.81   " style="fill:#78d7c9ed;"/><circle cx="95.555" cy="143.5" id="XMLID_3555_" r="35" style="fill:#FFFFFF;"/><circle cx="68.055" cy="246" id="XMLID_3554_" r="7.5" style="fill:#00c6a9;"/><path d="M162.993,341.831c-6.509,0-13.017-2.475-17.972-7.423l-10.313-10.314    c-1.953-1.952-1.953-5.118,0-7.07c1.954-1.953,5.119-1.953,7.071,0l10.31,10.311c6.012,6.002,15.797,6.003,21.811-0.003    L304.24,196.984c6.006-6.006,6.005-15.786-0.002-21.801l-10.308-10.308c-1.953-1.953-1.953-5.119,0-7.071    c1.953-1.952,5.118-1.952,7.071,0l10.31,10.31c9.903,9.916,9.902,26.038,0,35.941L180.971,334.404    C176.014,339.355,169.503,341.831,162.993,341.831z" id="XMLID_3553_" style="fill:#00c6a9;"/><path d="M113.495,300.81c-1.28,0-2.559-0.488-3.536-1.465l-10.31-10.31    c-9.9-9.913-9.9-26.038-0.002-35.948L230,122.744c9.902-9.901,26.024-9.903,35.938-0.002l10.313,10.312    c1.953,1.953,1.953,5.119,0,7.071c-1.953,1.952-5.118,1.952-7.071,0l-10.31-10.31c-6.013-6.005-15.793-6.006-21.799,0    L106.72,260.156c-6.004,6.011-6.004,15.796,0.003,21.81l10.308,10.308c1.953,1.952,1.953,5.118,0,7.07    C116.054,300.321,114.775,300.81,113.495,300.81z" id="XMLID_3552_" style="fill:#00c6a9;"/><path d="M297.465,166.34c-1.28,0-2.559-0.488-3.536-1.464l-24.75-24.75    c-1.953-1.953-1.953-5.119,0-7.071l52.91-52.91c1.953-1.952,5.118-1.952,7.071,0c1.953,1.953,1.953,5.119,0,7.071l-49.374,49.374    l17.679,17.679l49.374-49.374c1.953-1.952,5.118-1.952,7.071,0c1.953,1.953,1.953,5.119,0,7.071l-52.91,52.91    C300.024,165.852,298.745,166.34,297.465,166.34z" id="XMLID_3551_" style="fill:#00c6a9;"/><path d="M368.055,125.93c-4.676,0-9.071-1.82-12.375-5.124l-42.43-42.43    c-3.305-3.305-5.124-7.7-5.124-12.376s1.82-9.071,5.124-12.375c3.313-3.306,7.708-5.125,12.379-5.125    c4.673,0,9.067,1.82,12.372,5.125l42.43,42.43c3.305,3.305,5.124,7.7,5.124,12.376c0,4.662-1.817,9.054-5.117,12.368    C377.126,124.11,372.731,125.93,368.055,125.93z M325.629,58.5c-2.004,0-3.891,0.781-5.311,2.199    c-1.413,1.413-2.192,3.296-2.192,5.301c0,2.004,0.78,3.888,2.196,5.304l42.43,42.43c1.415,1.416,3.299,2.195,5.304,2.195    c2.005,0,3.889-0.779,5.304-2.195c1.414-1.419,2.196-3.306,2.196-5.304c0-2.005-0.78-3.889-2.196-5.305l-42.43-42.43    C329.513,59.28,327.631,58.5,325.629,58.5z" id="XMLID_7261_" style="fill:#00c6a9;"/><path d="M124.105,339.7c-1.326,0-2.598-0.526-3.536-1.465l-24.75-24.75    c-0.938-0.938-1.464-2.209-1.464-3.535s0.527-2.598,1.464-3.535l14.14-14.141c0.938-0.939,2.21-1.465,3.536-1.465    c1.326,0,2.598,0.526,3.536,1.465l24.75,24.75c1.953,1.952,1.953,5.118,0,7.07l-14.14,14.141    C126.703,339.174,125.431,339.7,124.105,339.7z M106.426,309.95l17.679,17.679l7.069-7.069l-17.679-17.679L106.426,309.95z" id="XMLID_7253_" style="fill:#00c6a9;"/><path d="M41.445,398.46c-1.28,0-2.559-0.488-3.536-1.465c-1.953-1.952-1.953-5.118,0-7.07    l70.71-70.71c1.953-1.953,5.118-1.953,7.071,0c1.953,1.952,1.953,5.118,0,7.07l-70.71,70.71    C44.004,397.972,42.725,398.46,41.445,398.46z" id="XMLID_3546_" style="fill:#00c6a9;"/><path d="M191.275,322.02c-1.28,0-2.559-0.488-3.536-1.465l-24.75-24.75    c-1.953-1.952-1.953-5.118,0-7.07c1.953-1.953,5.118-1.953,7.071,0l24.75,24.75c1.953,1.952,1.953,5.118,0,7.07    C193.834,321.531,192.555,322.02,191.275,322.02z" id="XMLID_3545_" style="fill:#00c6a9;"/><path d="M205.425,307.88c-1.28,0-2.559-0.488-3.536-1.465l-17.68-17.68    c-1.953-1.952-1.953-5.118,0-7.07c1.953-1.953,5.118-1.953,7.071,0l17.68,17.68c1.953,1.952,1.953,5.118,0,7.07    C207.984,307.392,206.705,307.88,205.425,307.88z" id="XMLID_3544_" style="fill:#00c6a9;"/><path d="M219.565,293.74c-1.28,0-2.559-0.488-3.536-1.465l-24.75-24.75    c-1.953-1.952-1.953-5.118,0-7.07c1.953-1.953,5.118-1.953,7.071,0l24.75,24.75c1.953,1.952,1.953,5.118,0,7.07    C222.124,293.252,220.845,293.74,219.565,293.74z" id="XMLID_3543_" style="fill:#00c6a9;"/><path d="M233.705,279.6c-1.28,0-2.559-0.488-3.536-1.465l-17.68-17.68    c-1.953-1.952-1.953-5.118,0-7.07c1.953-1.953,5.118-1.953,7.071,0l17.68,17.68c1.953,1.952,1.953,5.118,0,7.07    C236.264,279.111,234.985,279.6,233.705,279.6z" id="XMLID_3542_" style="fill:#00c6a9;"/><path d="M247.845,265.45c-1.279,0-2.559-0.488-3.535-1.464l-24.75-24.74    c-1.953-1.952-1.954-5.118-0.002-7.071c1.952-1.954,5.118-1.954,7.071-0.001l24.75,24.74c1.953,1.952,1.954,5.118,0.002,7.071    C250.405,264.962,249.125,265.45,247.845,265.45z" id="XMLID_3541_" style="fill:#00c6a9;"/><path d="M261.985,251.31c-1.28,0-2.56-0.488-3.537-1.465l-17.67-17.68    c-1.952-1.953-1.951-5.119,0.002-7.071c1.954-1.952,5.119-1.952,7.071,0.002l17.67,17.68c1.952,1.953,1.951,5.119-0.002,7.071    C264.543,250.822,263.264,251.31,261.985,251.31z" id="XMLID_3540_" style="fill:#00c6a9;"/><path d="M141.785,258.38c-1.28,0-2.559-0.488-3.536-1.465    c-1.953-1.952-1.953-5.118,0-7.071l77.78-77.78c1.953-1.952,5.118-1.952,7.071,0c1.953,1.953,1.953,5.119,0,7.071l-77.78,77.779    C144.344,257.892,143.065,258.38,141.785,258.38z" id="XMLID_3539_" style="fill:#00c6a9;"/><path d="M419.305,463.5h-92.5c-14.474,0-26.25-11.775-26.25-26.25V323.5    c0-2.762,2.239-5,5-5s5,2.238,5,5v113.75c0,8.96,7.29,16.25,16.25,16.25h92.5c8.961,0,16.25-7.29,16.25-16.25V323.5    c0-2.762,2.239-5,5-5s5,2.238,5,5v113.75C445.555,451.725,433.779,463.5,419.305,463.5z" id="XMLID_3538_" style="fill:#00c6a9;"/><path d="M440.555,328.5h-135c-1.873,0-3.589-1.047-4.446-2.712    c-0.857-1.665-0.711-3.67,0.377-5.194l25-35c1.604-2.248,4.728-2.771,6.975-1.162c2.247,1.604,2.767,4.728,1.163,6.975    L315.271,318.5h115.568l-19.353-27.094c-1.605-2.247-1.085-5.37,1.163-6.975c2.247-1.607,5.371-1.085,6.975,1.162l25,35    c1.088,1.524,1.234,3.529,0.377,5.194C444.144,327.453,442.428,328.5,440.555,328.5z" id="XMLID_3537_" style="fill:#00c6a9;"/><path d="M415.555,293.5h-85c-2.761,0-5-2.238-5-5v-20c0-2.762,2.239-5,5-5s5,2.238,5,5v15    h75v-15c0-2.762,2.239-5,5-5s5,2.238,5,5v20C420.555,291.262,418.316,293.5,415.555,293.5z" id="XMLID_3536_" style="fill:#00c6a9;"/><path d="M421.055,273.5h-96c-7.995,0-14.5-6.505-14.5-14.5v-11    c0-7.995,6.505-14.5,14.5-14.5h96c7.995,0,14.5,6.505,14.5,14.5v11C435.555,266.995,429.05,273.5,421.055,273.5z M325.055,243.5    c-2.481,0-4.5,2.019-4.5,4.5v11c0,2.481,2.019,4.5,4.5,4.5h96c2.482,0,4.5-2.019,4.5-4.5v-11c0-2.481-2.018-4.5-4.5-4.5H325.055z" id="XMLID_7211_" style="fill:#00c6a9;"/><path d="M405.555,428.5c-2.761,0-5-2.238-5-5v-60h-55v60c0,2.762-2.239,5-5,5    s-5-2.238-5-5v-65c0-2.762,2.239-5,5-5h65c2.761,0,5,2.238,5,5v65C410.555,426.262,408.316,428.5,405.555,428.5z" id="XMLID_3533_" style="fill:#00c6a9;"/><path d="M440.555,428.5h-135c-2.761,0-5-2.238-5-5s2.239-5,5-5h135c2.761,0,5,2.238,5,5    S443.316,428.5,440.555,428.5z" id="XMLID_3532_" style="fill:#00c6a9;"/><path d="M430.555,178.5c-13.785,0-25-11.215-25-25s11.215-25,25-25    c13.785,0,25,11.215,25,25S444.34,178.5,430.555,178.5z M430.555,138.5c-8.271,0-15,6.729-15,15s6.729,15,15,15    c8.271,0,15-6.729,15-15S438.826,138.5,430.555,138.5z" id="XMLID_7155_" style="fill:#00c6a9;"/><path d="M95.555,183.5c-22.056,0-40-17.944-40-40s17.944-40,40-40    c22.056,0,40,17.944,40,40S117.611,183.5,95.555,183.5z M95.555,113.5c-16.542,0-30,13.458-30,30s13.458,30,30,30s30-13.458,30-30    S112.097,113.5,95.555,113.5z" id="XMLID_7138_" style="fill:#00c6a9;"/></g></g><g id="Layer_1"/></svg>